<svg version="1.1" id="Layer_1" xmlns="http://www.w3.org/2000/svg" x="0px" y="0px"
	 viewBox="0 0 460.001 460.001" style="enable-background:new 0 0 460.001 460.001;" >
<g>
	<g>
		<path d="M427.137,0H32.865C14.743,0,0,14.743,0,32.865v394.272c0,18.121,14.743,32.864,32.865,32.864h394.271
			c18.122,0,32.865-14.743,32.865-32.864V32.865C460.002,14.743,445.259,0,427.137,0z M321.041,365.638
			c-2.322,5.605-7.791,9.26-13.858,9.26H152.819c-6.067,0-11.536-3.654-13.858-9.26c-2.321-5.605-1.038-12.057,3.252-16.347
			l77.182-77.182c5.857-5.857,15.355-5.857,21.213,0l77.182,77.182C322.079,353.581,323.362,360.032,321.041,365.638z
			 M350.85,213.001H109.152c-8.284,0-15-6.716-15-15s6.716-15,15-15H350.85c8.284,0,15,6.716,15,15S359.134,213.001,350.85,213.001z
			 M350.85,119.001H109.152c-8.284,0-15-6.716-15-15s6.716-15,15-15H350.85c8.284,0,15,6.716,15,15S359.134,119.001,350.85,119.001z
			"/>
	</g>
</g>
</svg>
